<svg width="844" height="213" viewBox="0 0 844 213" fill="none" xmlns="http://www.w3.org/2000/svg">
<path d="M159.674 111.69C143.48 70.0103 85.8198 67.7628 99.7449 7.18367C100.776 2.68876 95.9284 -0.784579 92.0087 1.56503C54.5657 23.4266 27.6439 67.252 50.2335 124.664C52.0901 129.364 46.5201 133.756 42.4973 130.692C23.8274 116.696 21.8675 96.5711 23.5179 82.1669C24.1368 76.8548 17.1227 74.3009 14.1314 78.6936C7.11727 89.3179 0 106.48 0 132.326C3.91965 189.534 52.709 207.105 70.2443 209.352C95.3095 212.519 122.438 207.922 141.933 190.249C163.388 170.533 171.227 139.068 159.674 111.69ZM63.9522 163.075C78.8057 159.5 86.4387 148.876 88.5017 139.477C91.9056 124.869 78.5994 110.567 87.5733 87.4791C90.9772 106.582 121.303 118.535 121.303 139.375C122.128 165.221 93.8654 187.389 63.9522 163.075Z" fill="#389AD6"/>
<path d="M204.839 50.7315V37.7685H218.185V50.7315H204.839ZM204.839 131V62.0342H218.185V131H204.839Z" fill="#389AD6"/>
<path d="M243.747 131V37.1299H257.093V131H243.747Z" fill="#389AD6"/>
<path d="M282.655 131V37.1299H296.001V131H282.655Z" fill="#389AD6"/>
<path d="M346.276 132.852C341.508 132.852 337.506 132.086 334.271 130.553C331.035 129.021 328.396 127.02 326.352 124.551C324.351 122.039 322.819 119.314 321.755 116.377C320.69 113.439 319.967 110.566 319.583 107.756C319.2 104.946 319.009 102.477 319.009 100.349V62.0342H332.546V95.9424C332.546 98.6245 332.759 101.392 333.185 104.244C333.653 107.054 334.505 109.672 335.739 112.098C337.016 114.525 338.783 116.483 341.039 117.973C343.338 119.463 346.318 120.208 349.98 120.208C352.364 120.208 354.62 119.825 356.748 119.059C358.877 118.25 360.729 116.973 362.304 115.227C363.922 113.482 365.178 111.183 366.072 108.331C367.008 105.478 367.476 102.009 367.476 97.922L375.778 101.051C375.778 107.309 374.607 112.843 372.266 117.654C369.924 122.422 366.561 126.147 362.176 128.829C357.791 131.511 352.491 132.852 346.276 132.852ZM369.073 131V111.077H367.476V62.0342H380.95V131H369.073Z" fill="#389AD6"/>
<path d="M486.6 131L486.664 88.0241C486.664 83.0433 485.387 79.1693 482.833 76.4021C480.278 73.5924 476.915 72.1875 472.743 72.1875C470.189 72.1875 467.847 72.7835 465.719 73.9755C463.633 75.125 461.93 76.8704 460.61 79.2118C459.333 81.5107 458.695 84.4056 458.695 87.8964L452.245 84.6397C452.16 79.7866 453.182 75.5294 455.31 71.8682C457.481 68.2071 460.419 65.3761 464.122 63.3752C467.826 61.3318 471.977 60.3101 476.575 60.3101C484.025 60.3101 489.793 62.5451 493.88 67.0151C497.967 71.4851 500.01 77.4238 500.01 84.8313L499.946 131H486.6ZM403.905 131V62.0342H415.782V81.9577H417.315V131H403.905ZM445.285 131L445.348 88.2796C445.348 83.2561 444.071 79.3183 441.517 76.466C439.005 73.6137 435.621 72.1875 431.364 72.1875C427.149 72.1875 423.743 73.635 421.146 76.5298C418.592 79.4247 417.315 83.2136 417.315 87.8964L410.929 83.8096C410.929 79.297 412.015 75.274 414.186 71.7405C416.357 68.2071 419.295 65.4187 422.998 63.3752C426.702 61.3318 430.895 60.3101 435.578 60.3101C440.474 60.3101 444.646 61.3531 448.094 63.4391C451.543 65.4825 454.161 68.3561 455.949 72.0598C457.779 75.7635 458.695 80.0633 458.695 84.959L458.631 131H445.285Z" fill="#389AD6"/>
<path d="M522.978 50.7315V37.7685H536.324V50.7315H522.978ZM522.978 131V62.0342H536.324V131H522.978Z" fill="#389AD6"/>
<path d="M609.013 131V97.0919C609.013 94.4099 608.778 91.664 608.31 88.8543C607.884 86.002 607.033 83.3626 605.756 80.936C604.521 78.5094 602.755 76.5511 600.456 75.0611C598.199 73.5711 595.241 72.8261 591.58 72.8261C589.196 72.8261 586.939 73.2305 584.811 74.0394C582.682 74.8057 580.809 76.0615 579.191 77.807C577.616 79.5524 576.36 81.8513 575.424 84.7036C574.53 87.5559 574.083 91.0254 574.083 95.1123L565.781 91.9833C565.781 85.7253 566.952 80.2123 569.293 75.4443C571.635 70.6337 574.998 66.8874 579.383 64.2054C583.768 61.5234 589.068 60.1824 595.283 60.1824C600.051 60.1824 604.053 60.9486 607.288 62.4812C610.524 64.0138 613.142 66.0359 615.143 68.5477C617.186 71.0168 618.74 73.7201 619.805 76.6575C620.869 79.595 621.593 82.4686 621.976 85.2783C622.359 88.088 622.55 90.5571 622.55 92.6857V131H609.013ZM560.545 131V62.0342H572.486V81.9577H574.083V131H560.545Z" fill="#389AD6"/>
<path d="M663.768 132.916C658.66 132.916 654.381 131.979 650.933 130.106C647.485 128.19 644.867 125.679 643.079 122.571C641.333 119.421 640.46 115.972 640.46 112.226C640.46 108.735 641.078 105.67 642.312 103.031C643.547 100.391 645.377 98.1562 647.804 96.3256C650.231 94.4524 653.211 92.9412 656.744 91.7917C659.809 90.8977 663.279 90.1101 667.153 89.429C671.027 88.7479 675.092 88.1093 679.349 87.5133C683.649 86.9173 687.906 86.3213 692.121 85.7253L687.268 88.4073C687.353 83.0007 686.203 78.999 683.819 76.4021C681.478 73.7627 677.434 72.443 671.687 72.443C668.068 72.443 664.747 73.2944 661.725 74.9973C658.702 76.6575 656.595 79.4247 655.403 83.2987L642.951 79.4673C644.654 73.5498 647.889 68.8457 652.657 65.3548C657.468 61.8639 663.853 60.1185 671.814 60.1185C677.987 60.1185 683.351 61.1828 687.906 63.3114C692.504 65.3974 695.867 68.718 697.996 73.2731C699.103 75.5294 699.784 77.9134 700.039 80.4251C700.295 82.9368 700.422 85.6401 700.422 88.535V131H688.609V115.227L690.908 117.271C688.055 122.55 684.415 126.488 679.988 129.084C675.603 131.639 670.197 132.916 663.768 132.916ZM666.131 121.996C669.92 121.996 673.177 121.336 675.901 120.017C678.626 118.654 680.818 116.93 682.478 114.844C684.139 112.758 685.224 110.587 685.735 108.331C686.459 106.287 686.863 103.988 686.948 101.434C687.076 98.8799 687.14 96.8365 687.14 95.3039L691.482 96.9003C687.268 97.5389 683.436 98.1136 679.988 98.6245C676.54 99.1353 673.411 99.6462 670.601 100.157C667.834 100.625 665.365 101.2 663.194 101.881C661.363 102.52 659.724 103.286 658.277 104.18C656.872 105.074 655.744 106.16 654.892 107.437C654.083 108.714 653.679 110.268 653.679 112.098C653.679 113.886 654.126 115.547 655.02 117.079C655.914 118.569 657.276 119.761 659.107 120.655C660.937 121.549 663.279 121.996 666.131 121.996Z" fill="#389AD6"/>
<path d="M761.577 131C757.234 131.852 752.977 132.213 748.805 132.086C744.633 131.958 740.908 131.149 737.63 129.659C734.352 128.169 731.883 125.828 730.223 122.635C728.733 119.783 727.924 116.888 727.796 113.95C727.711 110.97 727.668 107.607 727.668 103.861V42.877H741.078V103.222C741.078 105.989 741.1 108.395 741.142 110.438C741.227 112.481 741.674 114.206 742.483 115.61C744.016 118.25 746.442 119.761 749.763 120.144C753.126 120.485 757.064 120.336 761.577 119.697V131ZM714.45 72.7622V62.0342H761.577V72.7622H714.45Z" fill="#389AD6"/>
<path d="M808.695 132.916C801.841 132.916 795.818 131.426 790.624 128.446C785.473 125.423 781.45 121.23 778.555 115.866C775.702 110.459 774.276 104.201 774.276 97.0919C774.276 89.5567 775.681 83.022 778.491 77.4877C781.343 71.9534 785.302 67.6749 790.368 64.6524C795.434 61.6298 801.331 60.1185 808.057 60.1185C815.081 60.1185 821.062 61.7575 826.001 65.0355C830.939 68.271 834.621 72.89 837.048 78.8926C839.517 84.8951 840.496 92.0259 839.985 100.285H826.639V95.4316C826.554 87.4281 825.022 81.5107 822.042 77.6793C819.104 73.8478 814.613 71.9321 808.568 71.9321C801.884 71.9321 796.861 74.0394 793.497 78.254C790.134 82.4686 788.453 88.5563 788.453 96.5172C788.453 104.095 790.134 109.97 793.497 114.142C796.861 118.271 801.714 120.336 808.057 120.336C812.229 120.336 815.826 119.399 818.849 117.526C821.914 115.61 824.298 112.886 826.001 109.352L839.091 113.503C836.409 119.676 832.344 124.465 826.895 127.871C821.446 131.234 815.379 132.916 808.695 132.916ZM784.11 100.285V89.876H833.344V100.285H784.11Z" fill="#389AD6"/>
<path d="M197.45 200.468V165.733H208.329C208.651 165.733 209.246 165.741 210.114 165.758C210.998 165.774 211.843 165.838 212.647 165.95C215.364 166.288 217.648 167.261 219.497 168.869C221.363 170.477 222.77 172.52 223.718 174.996C224.667 177.456 225.142 180.158 225.142 183.101C225.142 186.06 224.667 188.777 223.718 191.254C222.77 193.714 221.363 195.748 219.497 197.357C217.648 198.949 215.364 199.913 212.647 200.251C211.843 200.364 210.998 200.428 210.114 200.444C209.246 200.46 208.651 200.468 208.329 200.468H197.45ZM202.612 195.668H208.329C208.876 195.668 209.527 195.652 210.283 195.62C211.039 195.588 211.706 195.523 212.285 195.427C214.054 195.089 215.485 194.325 216.578 193.135C217.688 191.929 218.5 190.45 219.015 188.697C219.529 186.944 219.787 185.079 219.787 183.101C219.787 181.059 219.521 179.169 218.991 177.432C218.46 175.679 217.64 174.216 216.53 173.042C215.437 171.852 214.022 171.096 212.285 170.775C211.706 170.662 211.031 170.598 210.259 170.582C209.503 170.55 208.86 170.534 208.329 170.534H202.612V195.668Z" fill="#389AD6"/>
<path d="M242.313 201.192C239.724 201.192 237.448 200.629 235.486 199.503C233.54 198.362 232.021 196.778 230.927 194.751C229.85 192.709 229.311 190.345 229.311 187.66C229.311 184.813 229.842 182.345 230.903 180.254C231.981 178.164 233.476 176.548 235.39 175.406C237.303 174.264 239.531 173.693 242.071 173.693C244.725 173.693 246.984 174.313 248.849 175.551C250.715 176.773 252.106 178.518 253.022 180.785C253.955 183.053 254.325 185.746 254.132 188.866H249.091V187.033C249.058 184.009 248.48 181.774 247.354 180.327C246.244 178.88 244.548 178.156 242.264 178.156C239.74 178.156 237.842 178.952 236.572 180.544C235.301 182.136 234.666 184.435 234.666 187.443C234.666 190.305 235.301 192.524 236.572 194.1C237.842 195.66 239.675 196.44 242.071 196.44C243.647 196.44 245.006 196.086 246.148 195.379C247.306 194.655 248.206 193.626 248.849 192.291L253.794 193.859C252.781 196.191 251.245 198 249.187 199.286C247.129 200.557 244.837 201.192 242.313 201.192ZM233.026 188.866V184.934H251.623V188.866H233.026Z" fill="#389AD6"/>
<path d="M259.544 200.468V165.733H280.119V170.775H264.585V180.568H277.225V185.634H264.585V200.468H259.544Z" fill="#389AD6"/>
<path d="M284.949 170.148V165.251H289.99V170.148H284.949ZM284.949 200.468V174.417H289.99V200.468H284.949Z" fill="#389AD6"/>
<path d="M295.549 177.312L295.862 175.068C296.554 175.117 297.093 174.988 297.478 174.682C297.864 174.377 298.122 173.951 298.25 173.404C298.379 172.857 298.403 172.238 298.323 171.547H295.549V165.733H300.88V172.029C300.88 173.927 300.421 175.358 299.505 176.323C298.604 177.288 297.285 177.617 295.549 177.312Z" fill="#389AD6"/>
<path d="M313.886 201.168C310.718 201.168 308.137 200.468 306.143 199.069C304.149 197.67 302.926 195.7 302.476 193.159L307.638 192.363C307.96 193.714 308.699 194.784 309.857 195.572C311.031 196.343 312.486 196.729 314.223 196.729C315.799 196.729 317.029 196.408 317.914 195.764C318.814 195.121 319.265 194.237 319.265 193.111C319.265 192.452 319.104 191.921 318.782 191.519C318.477 191.101 317.825 190.707 316.828 190.337C315.831 189.967 314.312 189.509 312.269 188.962C310.034 188.383 308.257 187.764 306.939 187.105C305.636 186.43 304.703 185.65 304.14 184.765C303.594 183.865 303.32 182.779 303.32 181.509C303.32 179.933 303.738 178.558 304.575 177.384C305.411 176.21 306.585 175.302 308.096 174.658C309.624 174.015 311.409 173.693 313.451 173.693C315.445 173.693 317.222 174.007 318.782 174.634C320.342 175.261 321.604 176.154 322.569 177.312C323.534 178.453 324.113 179.796 324.306 181.34L319.144 182.281C318.967 181.026 318.38 180.037 317.383 179.314C316.386 178.59 315.092 178.196 313.5 178.132C311.972 178.067 310.734 178.325 309.785 178.904C308.836 179.466 308.362 180.246 308.362 181.243C308.362 181.822 308.539 182.313 308.892 182.715C309.262 183.117 309.97 183.503 311.015 183.873C312.06 184.243 313.604 184.685 315.646 185.199C317.833 185.762 319.57 186.389 320.857 187.081C322.143 187.756 323.06 188.568 323.606 189.517C324.169 190.45 324.451 191.583 324.451 192.918C324.451 195.491 323.51 197.509 321.628 198.973C319.763 200.436 317.182 201.168 313.886 201.168Z" fill="#389AD6"/>
<path d="M339.446 200.468V165.733H360.021V170.775H344.487V180.568H357.127V185.634H344.487V200.468H339.446Z" fill="#389AD6"/>
<path d="M364.851 170.148V165.251H369.892V170.148H364.851ZM364.851 200.468V174.417H369.892V200.468H364.851Z" fill="#389AD6"/>
<path d="M374.241 200.468L383.986 187.298L374.458 174.417H380.44L386.929 183.366L393.345 174.417H399.327L389.799 187.298L399.568 200.468H393.562L386.929 191.23L380.247 200.468H374.241Z" fill="#389AD6"/>
<path d="M414.036 201.192C411.447 201.192 409.171 200.629 407.21 199.503C405.264 198.362 403.744 196.778 402.651 194.751C401.573 192.709 401.034 190.345 401.034 187.66C401.034 184.813 401.565 182.345 402.626 180.254C403.704 178.164 405.199 176.548 407.113 175.406C409.027 174.264 411.254 173.693 413.795 173.693C416.448 173.693 418.707 174.313 420.573 175.551C422.438 176.773 423.829 178.518 424.746 180.785C425.678 183.053 426.048 185.746 425.855 188.866H420.814V187.033C420.782 184.009 420.203 181.774 419.077 180.327C417.968 178.88 416.271 178.156 413.988 178.156C411.463 178.156 409.565 178.952 408.295 180.544C407.025 182.136 406.389 184.435 406.389 187.443C406.389 190.305 407.025 192.524 408.295 194.1C409.565 195.66 411.399 196.44 413.795 196.44C415.371 196.44 416.729 196.086 417.871 195.379C419.029 194.655 419.93 193.626 420.573 192.291L425.518 193.859C424.505 196.191 422.969 198 420.91 199.286C418.852 200.557 416.561 201.192 414.036 201.192ZM404.749 188.866V184.934H423.347V188.866H404.749Z" fill="#389AD6"/>
<path d="M441.615 201.192C439.187 201.192 437.089 200.589 435.32 199.383C433.567 198.177 432.208 196.536 431.243 194.462C430.294 192.371 429.82 190.024 429.82 187.419C429.82 184.797 430.302 182.458 431.267 180.399C432.232 178.325 433.599 176.693 435.368 175.503C437.153 174.296 439.267 173.693 441.712 173.693C444.172 173.693 446.239 174.296 447.911 175.503C449.599 176.693 450.87 178.325 451.722 180.399C452.591 182.474 453.025 184.813 453.025 187.419C453.025 190.024 452.591 192.363 451.722 194.438C450.854 196.512 449.575 198.161 447.887 199.383C446.198 200.589 444.108 201.192 441.615 201.192ZM442.315 196.633C443.971 196.633 445.322 196.239 446.367 195.451C447.412 194.663 448.176 193.577 448.659 192.195C449.141 190.812 449.382 189.22 449.382 187.419C449.382 185.617 449.133 184.025 448.635 182.642C448.152 181.26 447.396 180.182 446.367 179.41C445.354 178.638 444.06 178.252 442.484 178.252C440.811 178.252 439.436 178.662 438.359 179.483C437.281 180.303 436.477 181.404 435.947 182.787C435.432 184.17 435.175 185.714 435.175 187.419C435.175 189.139 435.432 190.699 435.947 192.098C436.477 193.481 437.265 194.583 438.311 195.403C439.372 196.223 440.707 196.633 442.315 196.633ZM449.382 200.468V181.726H448.803V165.733H453.869V200.468H449.382Z" fill="#389AD6"/>
<path d="M470.276 200.468V165.733H484.315C484.652 165.733 485.07 165.749 485.569 165.782C486.067 165.798 486.542 165.846 486.992 165.926C488.922 166.232 490.53 166.891 491.816 167.904C493.119 168.917 494.092 170.196 494.735 171.74C495.378 173.283 495.7 174.988 495.7 176.853C495.7 179.619 494.992 182.007 493.577 184.017C492.162 186.011 490.039 187.258 487.209 187.756L485.159 187.997H475.317V200.468H470.276ZM490.586 200.468L483.736 186.333L488.825 185.03L496.351 200.468H490.586ZM475.317 183.221H484.122C484.443 183.221 484.797 183.205 485.183 183.173C485.585 183.141 485.963 183.085 486.317 183.004C487.346 182.763 488.174 182.321 488.801 181.678C489.428 181.018 489.879 180.263 490.152 179.41C490.425 178.558 490.562 177.706 490.562 176.853C490.562 176.001 490.425 175.157 490.152 174.321C489.879 173.468 489.428 172.721 488.801 172.077C488.174 171.418 487.346 170.968 486.317 170.727C485.963 170.63 485.585 170.566 485.183 170.534C484.797 170.501 484.443 170.485 484.122 170.485H475.317V183.221Z" fill="#389AD6"/>
<path d="M509.01 201.192C507.08 201.192 505.464 200.838 504.161 200.13C502.859 199.407 501.87 198.458 501.194 197.284C500.535 196.094 500.205 194.792 500.205 193.376C500.205 192.058 500.438 190.9 500.905 189.903C501.371 188.906 502.063 188.062 502.979 187.37C503.896 186.663 505.022 186.092 506.356 185.658C507.514 185.32 508.825 185.022 510.288 184.765C511.751 184.508 513.287 184.267 514.895 184.042C516.519 183.816 518.127 183.591 519.719 183.366L517.886 184.379C517.918 182.337 517.484 180.825 516.584 179.844C515.699 178.847 514.172 178.349 512.001 178.349C510.634 178.349 509.379 178.67 508.238 179.314C507.096 179.941 506.3 180.986 505.85 182.45L501.146 181.002C501.789 178.767 503.011 176.99 504.812 175.671C506.63 174.353 509.042 173.693 512.049 173.693C514.381 173.693 516.407 174.095 518.127 174.9C519.864 175.687 521.135 176.942 521.939 178.662C522.357 179.515 522.614 180.415 522.711 181.364C522.807 182.313 522.855 183.334 522.855 184.427V200.468H518.393V194.51L519.261 195.282C518.184 197.276 516.809 198.764 515.136 199.745C513.48 200.709 511.438 201.192 509.01 201.192ZM509.902 197.067C511.333 197.067 512.564 196.818 513.593 196.319C514.622 195.805 515.45 195.153 516.077 194.365C516.704 193.577 517.114 192.757 517.307 191.905C517.581 191.133 517.733 190.265 517.766 189.3C517.814 188.335 517.838 187.563 517.838 186.984L519.478 187.587C517.886 187.829 516.439 188.046 515.136 188.239C513.834 188.432 512.652 188.625 511.591 188.818C510.545 188.994 509.613 189.212 508.793 189.469C508.101 189.71 507.482 189.999 506.935 190.337C506.405 190.675 505.978 191.085 505.657 191.567C505.351 192.05 505.198 192.637 505.198 193.328C505.198 194.004 505.367 194.631 505.705 195.21C506.043 195.773 506.557 196.223 507.249 196.561C507.94 196.898 508.825 197.067 509.902 197.067Z" fill="#389AD6"/>
<path d="M544.026 200.468C542.386 200.79 540.778 200.926 539.202 200.878C537.626 200.83 536.219 200.524 534.98 199.962C533.742 199.399 532.809 198.514 532.182 197.308C531.619 196.231 531.314 195.137 531.266 194.028C531.234 192.902 531.217 191.632 531.217 190.217V167.181H536.283V189.975C536.283 191.021 536.291 191.929 536.307 192.701C536.339 193.473 536.508 194.124 536.814 194.655C537.393 195.652 538.309 196.223 539.563 196.368C540.834 196.496 542.321 196.44 544.026 196.199V200.468ZM526.224 178.469V174.417H544.026V178.469H526.224Z" fill="#389AD6"/>
<path d="M559.895 201.192C557.306 201.192 555.03 200.629 553.068 199.503C551.123 198.362 549.603 196.778 548.509 194.751C547.432 192.709 546.893 190.345 546.893 187.66C546.893 184.813 547.424 182.345 548.485 180.254C549.563 178.164 551.058 176.548 552.972 175.406C554.886 174.264 557.113 173.693 559.654 173.693C562.307 173.693 564.566 174.313 566.432 175.551C568.297 176.773 569.688 178.518 570.605 180.785C571.537 183.053 571.907 185.746 571.714 188.866H566.673V187.033C566.641 184.009 566.062 181.774 564.936 180.327C563.827 178.88 562.13 178.156 559.846 178.156C557.322 178.156 555.424 178.952 554.154 180.544C552.883 182.136 552.248 184.435 552.248 187.443C552.248 190.305 552.883 192.524 554.154 194.1C555.424 195.66 557.257 196.44 559.654 196.44C561.229 196.44 562.588 196.086 563.73 195.379C564.888 194.655 565.788 193.626 566.432 192.291L571.377 193.859C570.363 196.191 568.828 198 566.769 199.286C564.711 200.557 562.419 201.192 559.895 201.192ZM550.608 188.866V184.934H569.206V188.866H550.608Z" fill="#389AD6"/>
<path d="M584.372 200.468L595.661 165.733H602.921L614.21 200.468H608.976L598.579 168.773H599.882L589.606 200.468H584.372ZM590.233 192.629V187.901H608.373V192.629H590.233Z" fill="#389AD6"/>
<path d="M629.272 212.77C627.873 212.77 626.514 212.553 625.195 212.119C623.892 211.685 622.703 211.041 621.625 210.189C620.548 209.353 619.655 208.316 618.948 207.077L623.603 204.714C624.166 205.823 624.97 206.635 626.015 207.15C627.06 207.664 628.162 207.922 629.32 207.922C630.751 207.922 631.973 207.664 632.986 207.15C633.999 206.651 634.763 205.895 635.278 204.882C635.808 203.869 636.066 202.615 636.05 201.119V193.835H636.653V174.417H641.115V201.168C641.115 201.859 641.091 202.518 641.043 203.146C640.995 203.773 640.906 204.4 640.777 205.027C640.408 206.78 639.7 208.227 638.655 209.369C637.626 210.511 636.307 211.363 634.699 211.926C633.107 212.489 631.298 212.77 629.272 212.77ZM628.886 201.192C626.457 201.192 624.359 200.589 622.59 199.383C620.837 198.177 619.478 196.536 618.513 194.462C617.565 192.371 617.09 190.024 617.09 187.419C617.09 184.797 617.573 182.458 618.538 180.399C619.502 178.325 620.869 176.693 622.638 175.503C624.423 174.296 626.538 173.693 628.982 173.693C631.442 173.693 633.509 174.296 635.181 175.503C636.87 176.693 638.14 178.325 638.992 180.399C639.861 182.474 640.295 184.813 640.295 187.419C640.295 190.024 639.861 192.363 638.992 194.438C638.124 196.512 636.846 198.161 635.157 199.383C633.469 200.589 631.378 201.192 628.886 201.192ZM629.585 196.633C631.241 196.633 632.592 196.239 633.638 195.451C634.683 194.663 635.447 193.577 635.929 192.195C636.411 190.812 636.653 189.22 636.653 187.419C636.653 185.617 636.403 184.025 635.905 182.642C635.423 181.26 634.667 180.182 633.638 179.41C632.624 178.638 631.33 178.252 629.754 178.252C628.082 178.252 626.707 178.662 625.629 179.483C624.552 180.303 623.748 181.404 623.217 182.787C622.703 184.17 622.445 185.714 622.445 187.419C622.445 189.139 622.703 190.699 623.217 192.098C623.748 193.481 624.536 194.583 625.581 195.403C626.642 196.223 627.977 196.633 629.585 196.633Z" fill="#389AD6"/>
<path d="M658.622 212.77C657.223 212.77 655.864 212.553 654.546 212.119C653.243 211.685 652.053 211.041 650.976 210.189C649.898 209.353 649.006 208.316 648.298 207.077L652.954 204.714C653.517 205.823 654.321 206.635 655.366 207.15C656.411 207.664 657.513 207.922 658.671 207.922C660.102 207.922 661.324 207.664 662.337 207.15C663.35 206.651 664.114 205.895 664.629 204.882C665.159 203.869 665.417 202.615 665.4 201.119V193.835H666.003V174.417H670.466V201.168C670.466 201.859 670.442 202.518 670.394 203.146C670.345 203.773 670.257 204.4 670.128 205.027C669.758 206.78 669.051 208.227 668.006 209.369C666.976 210.511 665.658 211.363 664.05 211.926C662.458 212.489 660.649 212.77 658.622 212.77ZM658.236 201.192C655.808 201.192 653.71 200.589 651.941 199.383C650.188 198.177 648.829 196.536 647.864 194.462C646.915 192.371 646.441 190.024 646.441 187.419C646.441 184.797 646.923 182.458 647.888 180.399C648.853 178.325 650.22 176.693 651.989 175.503C653.774 174.296 655.889 173.693 658.333 173.693C660.793 173.693 662.86 174.296 664.532 175.503C666.221 176.693 667.491 178.325 668.343 180.399C669.212 182.474 669.646 184.813 669.646 187.419C669.646 190.024 669.212 192.363 668.343 194.438C667.475 196.512 666.196 198.161 664.508 199.383C662.819 200.589 660.729 201.192 658.236 201.192ZM658.936 196.633C660.592 196.633 661.943 196.239 662.988 195.451C664.034 194.663 664.797 193.577 665.28 192.195C665.762 190.812 666.003 189.22 666.003 187.419C666.003 185.617 665.754 184.025 665.256 182.642C664.773 181.26 664.017 180.182 662.988 179.41C661.975 178.638 660.681 178.252 659.105 178.252C657.432 178.252 656.057 178.662 654.98 179.483C653.903 180.303 653.099 181.404 652.568 182.787C652.053 184.17 651.796 185.714 651.796 187.419C651.796 189.139 652.053 190.699 652.568 192.098C653.099 193.481 653.887 194.583 654.932 195.403C655.993 196.223 657.328 196.633 658.936 196.633Z" fill="#389AD6"/>
<path d="M677.239 200.468V174.417H681.726V180.737L681.099 179.917C681.42 179.081 681.838 178.317 682.353 177.625C682.867 176.918 683.462 176.339 684.138 175.888C684.797 175.406 685.529 175.036 686.333 174.779C687.153 174.506 687.989 174.345 688.842 174.296C689.694 174.232 690.514 174.272 691.302 174.417V179.145C690.45 178.92 689.501 178.855 688.456 178.952C687.426 179.048 686.478 179.378 685.609 179.941C684.789 180.472 684.138 181.115 683.655 181.871C683.189 182.626 682.851 183.471 682.642 184.403C682.433 185.32 682.329 186.293 682.329 187.322V200.468H677.239Z" fill="#389AD6"/>
<path d="M706.979 201.192C704.389 201.192 702.114 200.629 700.152 199.503C698.206 198.362 696.687 196.778 695.593 194.751C694.516 192.709 693.977 190.345 693.977 187.66C693.977 184.813 694.508 182.345 695.569 180.254C696.647 178.164 698.142 176.548 700.056 175.406C701.969 174.264 704.197 173.693 706.737 173.693C709.391 173.693 711.65 174.313 713.515 175.551C715.381 176.773 716.772 178.518 717.688 180.785C718.621 183.053 718.991 185.746 718.798 188.866H713.757V187.033C713.724 184.009 713.146 181.774 712.02 180.327C710.91 178.88 709.214 178.156 706.93 178.156C704.406 178.156 702.508 178.952 701.238 180.544C699.967 182.136 699.332 184.435 699.332 187.443C699.332 190.305 699.967 192.524 701.238 194.1C702.508 195.66 704.341 196.44 706.737 196.44C708.313 196.44 709.672 196.086 710.814 195.379C711.972 194.655 712.872 193.626 713.515 192.291L718.46 193.859C717.447 196.191 715.911 198 713.853 199.286C711.795 200.557 709.503 201.192 706.979 201.192ZM697.692 188.866V184.934H716.289V188.866H697.692Z" fill="#389AD6"/>
<path d="M734.944 212.77C733.545 212.77 732.186 212.553 730.867 212.119C729.565 211.685 728.375 211.041 727.297 210.189C726.22 209.353 725.327 208.316 724.62 207.077L729.275 204.714C729.838 205.823 730.642 206.635 731.687 207.15C732.733 207.664 733.834 207.922 734.992 207.922C736.423 207.922 737.645 207.664 738.659 207.15C739.672 206.651 740.435 205.895 740.95 204.882C741.481 203.869 741.738 202.615 741.722 201.119V193.835H742.325V174.417H746.787V201.168C746.787 201.859 746.763 202.518 746.715 203.146C746.667 203.773 746.578 204.4 746.45 205.027C746.08 206.78 745.372 208.227 744.327 209.369C743.298 210.511 741.979 211.363 740.371 211.926C738.779 212.489 736.97 212.77 734.944 212.77ZM734.558 201.192C732.13 201.192 730.031 200.589 728.262 199.383C726.509 198.177 725.151 196.536 724.186 194.462C723.237 192.371 722.763 190.024 722.763 187.419C722.763 184.797 723.245 182.458 724.21 180.399C725.175 178.325 726.542 176.693 728.31 175.503C730.095 174.296 732.21 173.693 734.654 173.693C737.115 173.693 739.181 174.296 740.854 175.503C742.542 176.693 743.812 178.325 744.665 180.399C745.533 182.474 745.967 184.813 745.967 187.419C745.967 190.024 745.533 192.363 744.665 194.438C743.796 196.512 742.518 198.161 740.829 199.383C739.141 200.589 737.05 201.192 734.558 201.192ZM735.257 196.633C736.914 196.633 738.265 196.239 739.31 195.451C740.355 194.663 741.119 193.577 741.601 192.195C742.084 190.812 742.325 189.22 742.325 187.419C742.325 185.617 742.076 184.025 741.577 182.642C741.095 181.26 740.339 180.182 739.31 179.41C738.297 178.638 737.002 178.252 735.426 178.252C733.754 178.252 732.379 178.662 731.302 179.483C730.224 180.303 729.42 181.404 728.889 182.787C728.375 184.17 728.117 185.714 728.117 187.419C728.117 189.139 728.375 190.699 728.889 192.098C729.42 193.481 730.208 194.583 731.253 195.403C732.315 196.223 733.649 196.633 735.257 196.633Z" fill="#389AD6"/>
<path d="M760.918 201.192C758.988 201.192 757.372 200.838 756.069 200.13C754.767 199.407 753.778 198.458 753.102 197.284C752.443 196.094 752.113 194.792 752.113 193.376C752.113 192.058 752.347 190.9 752.813 189.903C753.279 188.906 753.971 188.062 754.887 187.37C755.804 186.663 756.93 186.092 758.264 185.658C759.422 185.32 760.733 185.022 762.196 184.765C763.659 184.508 765.195 184.267 766.803 184.042C768.427 183.816 770.036 183.591 771.628 183.366L769.794 184.379C769.826 182.337 769.392 180.825 768.492 179.844C767.607 178.847 766.08 178.349 763.909 178.349C762.542 178.349 761.287 178.67 760.146 179.314C759.004 179.941 758.208 180.986 757.758 182.45L753.054 181.002C753.697 178.767 754.919 176.99 756.721 175.671C758.538 174.353 760.95 173.693 763.957 173.693C766.289 173.693 768.315 174.095 770.036 174.9C771.772 175.687 773.043 176.942 773.847 178.662C774.265 179.515 774.522 180.415 774.619 181.364C774.715 182.313 774.763 183.334 774.763 184.427V200.468H770.301V194.51L771.169 195.282C770.092 197.276 768.717 198.764 767.044 199.745C765.388 200.709 763.346 201.192 760.918 201.192ZM761.81 197.067C763.241 197.067 764.472 196.818 765.501 196.319C766.53 195.805 767.358 195.153 767.985 194.365C768.612 193.577 769.022 192.757 769.215 191.905C769.489 191.133 769.642 190.265 769.674 189.3C769.722 188.335 769.746 187.563 769.746 186.984L771.386 187.587C769.794 187.829 768.347 188.046 767.044 188.239C765.742 188.432 764.56 188.625 763.499 188.818C762.453 188.994 761.521 189.212 760.701 189.469C760.009 189.71 759.39 189.999 758.843 190.337C758.313 190.675 757.886 191.085 757.565 191.567C757.259 192.05 757.107 192.637 757.107 193.328C757.107 194.004 757.275 194.631 757.613 195.21C757.951 195.773 758.465 196.223 759.157 196.561C759.848 196.898 760.733 197.067 761.81 197.067Z" fill="#389AD6"/>
<path d="M795.934 200.468C794.294 200.79 792.686 200.926 791.11 200.878C789.534 200.83 788.127 200.524 786.888 199.962C785.65 199.399 784.718 198.514 784.09 197.308C783.528 196.231 783.222 195.137 783.174 194.028C783.142 192.902 783.125 191.632 783.125 190.217V167.181H788.191V189.975C788.191 191.021 788.199 191.929 788.215 192.701C788.247 193.473 788.416 194.124 788.722 194.655C789.301 195.652 790.217 196.223 791.471 196.368C792.742 196.496 794.229 196.44 795.934 196.199V200.468ZM778.132 178.469V174.417H795.934V178.469H778.132Z" fill="#389AD6"/>
<path d="M811.562 201.192C808.956 201.192 806.697 200.605 804.783 199.431C802.87 198.257 801.39 196.641 800.345 194.583C799.316 192.508 798.801 190.12 798.801 187.419C798.801 184.701 799.332 182.313 800.393 180.254C801.455 178.18 802.942 176.572 804.856 175.43C806.769 174.272 809.005 173.693 811.562 173.693C814.167 173.693 816.426 174.28 818.34 175.454C820.253 176.628 821.733 178.244 822.778 180.303C823.823 182.361 824.346 184.733 824.346 187.419C824.346 190.136 823.815 192.532 822.754 194.607C821.709 196.665 820.229 198.281 818.316 199.455C816.402 200.613 814.151 201.192 811.562 201.192ZM811.562 196.44C814.054 196.44 815.911 195.604 817.134 193.931C818.372 192.243 818.991 190.072 818.991 187.419C818.991 184.701 818.364 182.53 817.109 180.906C815.871 179.265 814.022 178.445 811.562 178.445C809.873 178.445 808.482 178.831 807.389 179.603C806.295 180.359 805.483 181.412 804.952 182.763C804.422 184.098 804.156 185.65 804.156 187.419C804.156 190.152 804.783 192.339 806.038 193.98C807.292 195.62 809.133 196.44 811.562 196.44Z" fill="#389AD6"/>
<path d="M829.647 200.468V174.417H834.133V180.737L833.506 179.917C833.828 179.081 834.246 178.317 834.76 177.625C835.275 176.918 835.87 176.339 836.545 175.888C837.205 175.406 837.936 175.036 838.74 174.779C839.56 174.506 840.397 174.345 841.249 174.296C842.101 174.232 842.921 174.272 843.709 174.417V179.145C842.857 178.92 841.908 178.855 840.863 178.952C839.834 179.048 838.885 179.378 838.017 179.941C837.197 180.472 836.545 181.115 836.063 181.871C835.597 182.626 835.259 183.471 835.05 184.403C834.841 185.32 834.736 186.293 834.736 187.322V200.468H829.647Z" fill="#389AD6"/>
</svg>
